<svg xmlns="http://www.w3.org/2000/svg" width="345" height="114" viewBox="0 0 345 114"><defs><style>.a{fill:#1a5fbd;}.b{fill:none;}</style></defs><title>img_logotype_01</title><path class="a" d="M298.22494,46.82982c4.54777,3.60755,10.59526,9.04835,9.86739,15.51-.53356,4.73691-4.61055,7.93686-8.39384,10.27867-18.79071,12.21507-68.73371,20.94988-127.399,20.94988S63.69125,84.83358,44.90054,72.61851c-3.78329-2.3418-7.86028-5.54176-8.39384-10.27867-.72787-6.46167,5.31962-11.90247,9.86739-15.51C18.51315,53.9634,1.49486,63.46764,1.49486,73.90809c0,14.97137,34.96661,28.02421,86.7713,34.90947A647.40911,647.40911,0,0,0,172.29951,114a647.40911,647.40911,0,0,0,84.03335-5.18244c51.80469-6.88526,86.7713-19.9381,86.7713-34.90947C343.10416,63.46764,326.08587,53.9634,298.22494,46.82982Z"/><path class="a" d="M71.69532,61.22718V0L113.316,40.07226V3.86954h8.77162V61.22777L80.46632,21.15465V61.22718Z"/><path class="a" d="M141.94412,3.86954c7.39573,0,12.03968.94608,15.82276,4.47227,3.09638,2.92346,4.55748,6.62132,4.55748,11.35048a12.512,12.512,0,0,1-1.71924,6.79425,9.50817,9.50817,0,0,1-4.29935,3.95475,15.75558,15.75558,0,0,1,7.39448,4.12768c3.09638,3.26806,3.78433,7.22406,3.78433,10.749,0,4.12768-1.03255,7.39573-3.78433,10.31919-4.55748,4.81562-11.69508,5.59-16.08089,5.59H133.259V3.86954Zm.08646,24.67959h2.66532c2.1503,0,5.07376-.25688,7.1376-2.23551,1.97737-1.89216,2.23551-4.55748,2.23551-6.53486a7.08628,7.08628,0,0,0-2.06384-5.50357c-1.97737-1.89216-4.471-2.1503-6.96467-2.1503h-3.00992Zm0,24.4227h5.33064c2.4949,0,6.44965-.42981,8.68641-2.23551a8.227,8.227,0,0,0,2.837-6.36319,8.59457,8.59457,0,0,0-2.322-6.01984c-2.40718-2.322-5.93338-2.58011-9.02851-2.58011h-5.50357Z"/><path class="a" d="M187.94627,3.86954c7.99847,0,14.96314.85962,21.32757,5.59,6.96467,5.24543,11.00713,13.586,11.00713,23.132,0,9.54478-3.956,17.80013-11.52341,23.132-6.70779,4.72916-12.98576,5.50357-20.983,5.50357H175.90785V3.86954Zm-3.2668,49.10229h3.78308c4.3006,0,10.234-.34335,15.22127-4.04121a20.22248,20.22248,0,0,0,7.82554-16.339c0-7.5674-3.6114-13.50078-7.73908-16.5107-4.98855-3.6114-11.0936-3.956-15.30774-3.956h-3.78308Z"/><path class="a" d="M272.9032,17.28511c-6.36319-5.7617-12.29782-6.36444-15.56462-6.36444-12.46949,0-20.89651,9.20143-20.89651,21.84259,0,12.12489,8.77037,21.498,20.98172,21.498,6.87946,0,12.21135-3.52494,15.47941-6.62132V58.04559a31.29983,31.29983,0,0,1-15.73755,4.29935,28.73422,28.73422,0,0,1-20.29378-7.91075c-6.70779-6.278-9.20143-13.58724-9.20143-21.67092,0-10.57732,4.38581-17.88659,9.20143-22.44408,5.93338-5.59,12.81284-7.48094,20.72359-7.48094A27.24865,27.24865,0,0,1,272.9032,6.96592Z"/><rect class="b" width="345" height="114"/></svg>